<mxfile host="app.diagrams.net" modified="2023-10-27T10:16:46.658Z" agent="Mozilla/5.0 (Windows NT 10.0; Win64; x64) AppleWebKit/537.36 (KHTML, like Gecko) Chrome/118.0.0.0 Safari/537.36" etag="8LZ60m_c9IRAXR0xA7Ow" version="22.0.8" type="device">
  <diagram name="Страница — 1" id="3nmeoAiaBOikeclxNtSS">
    <mxGraphModel dx="880" dy="478" grid="1" gridSize="10" guides="1" tooltips="1" connect="1" arrows="1" fold="1" page="1" pageScale="1" pageWidth="827" pageHeight="1169" math="0" shadow="0">
      <root>
        <mxCell id="0" />
        <mxCell id="1" parent="0" />
        <mxCell id="fXMtu5aFGLQI2HaEkPdT-2" value="" style="rounded=0;whiteSpace=wrap;html=1;" vertex="1" parent="1">
          <mxGeometry x="90" y="70" width="380" height="350" as="geometry" />
        </mxCell>
        <mxCell id="fXMtu5aFGLQI2HaEkPdT-3" value="Node" style="text;html=1;align=center;verticalAlign=middle;resizable=0;points=[];autosize=1;strokeColor=none;fillColor=none;" vertex="1" parent="1">
          <mxGeometry x="90" y="80" width="50" height="30" as="geometry" />
        </mxCell>
        <mxCell id="fXMtu5aFGLQI2HaEkPdT-4" value="" style="rounded=0;whiteSpace=wrap;html=1;" vertex="1" parent="1">
          <mxGeometry x="170" y="150" width="140" height="80" as="geometry" />
        </mxCell>
        <mxCell id="fXMtu5aFGLQI2HaEkPdT-5" value="pod" style="text;html=1;align=center;verticalAlign=middle;resizable=0;points=[];autosize=1;strokeColor=none;fillColor=none;" vertex="1" parent="1">
          <mxGeometry x="175" y="150" width="40" height="30" as="geometry" />
        </mxCell>
        <mxCell id="fXMtu5aFGLQI2HaEkPdT-6" value="" style="rounded=0;whiteSpace=wrap;html=1;" vertex="1" parent="1">
          <mxGeometry x="190" y="180" width="90" height="40" as="geometry" />
        </mxCell>
        <mxCell id="fXMtu5aFGLQI2HaEkPdT-7" value="container" style="text;html=1;align=center;verticalAlign=middle;resizable=0;points=[];autosize=1;strokeColor=none;fillColor=none;" vertex="1" parent="1">
          <mxGeometry x="200" y="185" width="70" height="30" as="geometry" />
        </mxCell>
        <mxCell id="fXMtu5aFGLQI2HaEkPdT-8" value="" style="rounded=0;whiteSpace=wrap;html=1;" vertex="1" parent="1">
          <mxGeometry x="330" y="290" width="120" height="60" as="geometry" />
        </mxCell>
        <mxCell id="fXMtu5aFGLQI2HaEkPdT-9" value="Service NodePort" style="text;html=1;align=center;verticalAlign=middle;resizable=0;points=[];autosize=1;strokeColor=none;fillColor=none;" vertex="1" parent="1">
          <mxGeometry x="330" y="305" width="120" height="30" as="geometry" />
        </mxCell>
        <mxCell id="fXMtu5aFGLQI2HaEkPdT-10" value="" style="rounded=0;whiteSpace=wrap;html=1;" vertex="1" parent="1">
          <mxGeometry x="520" y="290" width="120" height="60" as="geometry" />
        </mxCell>
        <mxCell id="fXMtu5aFGLQI2HaEkPdT-11" value="localhost" style="text;html=1;align=center;verticalAlign=middle;resizable=0;points=[];autosize=1;strokeColor=none;fillColor=none;" vertex="1" parent="1">
          <mxGeometry x="545" y="305" width="70" height="30" as="geometry" />
        </mxCell>
        <mxCell id="fXMtu5aFGLQI2HaEkPdT-12" style="edgeStyle=orthogonalEdgeStyle;rounded=0;orthogonalLoop=1;jettySize=auto;html=1;exitX=0;exitY=0.5;exitDx=0;exitDy=0;entryX=1;entryY=0.5;entryDx=0;entryDy=0;entryPerimeter=0;" edge="1" parent="1" source="fXMtu5aFGLQI2HaEkPdT-10" target="fXMtu5aFGLQI2HaEkPdT-9">
          <mxGeometry relative="1" as="geometry" />
        </mxCell>
        <mxCell id="fXMtu5aFGLQI2HaEkPdT-14" value="" style="endArrow=classic;html=1;rounded=0;exitX=-0.008;exitY=0.767;exitDx=0;exitDy=0;exitPerimeter=0;entryX=0.5;entryY=1;entryDx=0;entryDy=0;" edge="1" parent="1" source="fXMtu5aFGLQI2HaEkPdT-9" target="fXMtu5aFGLQI2HaEkPdT-4">
          <mxGeometry width="50" height="50" relative="1" as="geometry">
            <mxPoint x="230" y="330" as="sourcePoint" />
            <mxPoint x="280" y="280" as="targetPoint" />
            <Array as="points">
              <mxPoint x="240" y="328" />
            </Array>
          </mxGeometry>
        </mxCell>
      </root>
    </mxGraphModel>
  </diagram>
</mxfile>
